#!OML:ASF F:\VICON\USERDATA\INSTALL\Justin_Nancy\Justin_Nancy.ASF
:FULLY-SPECIFIED
:DEGREES
142
root 0.824935 17.7521 -22.7414 6.29997 -2.29912 3.08832
lowerback 5.02041 2.13799 -3.50496
upperback 0.182299 2.64697 0.0268454
thorax -2.78634 1.36322 1.794
lowerneck -14.8949 -4.45919 -9.21844
upperneck 19.4077 -5.38008 6.5672
head 8.97064 -2.52375 3.11066
rclavicle -3.97569e-016 -1.19271e-015
rhumerus -31.9766 -10.2424 -82.2396
rradius 29.0616
rwrist 10.4606
rhand -13.6442 9.96351
rfingers 7.12502
rthumb 12.4722 -19.6443
lclavicle -3.97569e-016 -1.19271e-015
lhumerus -34.9375 17.8935 77.9099
lradius 24.4457
lwrist -11.372
lhand -11.7707 23.9464
lfingers 7.12502
lthumb 14.278 53.4356
rfemur -3.71878 1.10369 18.8852
rtibia 50.11
rfoot 22.895 -3.39712
rtoes 9.25246
lfemur -21.0389 0.55788 -25.3021
ltibia 19.8382
lfoot -8.10085 -4.05079
ltoes -3.55559
143
root 0.836586 17.7552 -22.6091 6.27518 -2.15671 3.46517
lowerback 5.11557 1.94605 -3.88447
upperback 0.16848 2.36424 0.00562119
thorax -2.85217 1.22848 2.00326
lowerneck -14.7986 -4.30178 -9.45127
upperneck 19.3044 -5.1185 6.61077
head 8.90262 -2.41549 3.19832
rclavicle 2.41523e-014 7.55382e-015
rhumerus -31.7617 -10.0948 -82.2209
rradius 28.9878
rwrist 10.6256
rhand -13.8683 10.2749
rfingers 7.12502
rthumb 12.2561 -19.346
lclavicle 2.41523e-014 7.55382e-015
lhumerus -34.768 16.7268 78.6196
lradius 25.249
lwrist -10.246
lhand -12.786 23.9086
lfingers 7.12502
lthumb 13.2995 53.4642
rfemur -5.37697 0.685792 18.3644
rtibia 52.7291
rfoot 22.3422 -3.74931
rtoes 9.28273
lfemur -20.4677 0.337835 -25.7651
ltibia 19.6354
lfoot -8.13969 -4.12095
ltoes -3.29841
144
root 0.849677 17.7462 -22.4704 6.15984 -2.05003 3.77436
lowerback 5.17304 1.84248 -4.04042
upperback 0.270146 2.21302 -0.117704
thorax -2.7706 1.15146 1.97577
lowerneck -14.5819 -4.28078 -9.4242
upperneck 18.9363 -5.08897 6.55969
head 8.73278 -2.40711 3.17837
rclavicle -4.37326e-014 4.77083e-015
rhumerus -31.4392 -10.1931 -82.3133
rradius 29.2589
rwrist 10.1785
rhand -13.4639 10.5511
rfingers 7.12502
rthumb 12.646 -19.046
lclavicle -4.37326e-014 4.77083e-015
lhumerus -34.3144 15.9806 78.8678
lradius 25.3397
lwrist -9.85606
lhand -13.4766 22.0955
lfingers 7.12502
lthumb 12.6337 51.6934
rfemur -6.85572 0.24384 17.9166
rtibia 55.2275
rfoot 21.0993 -3.96467
rtoes 9.96357
lfemur -19.8666 0.368576 -26.1903
ltibia 19.4907
lfoot -8.21684 -4.33227
ltoes -1.28676
145
root 0.859073 17.7345 -22.3373 6.01384 -2.00484 3.9794
lowerback 5.43666 1.78747 -4.10425
upperback 0.286004 2.11981 -0.239384
thorax -2.89365 1.10683 1.88583
lowerneck -14.3825 -4.4148 -9.54962
upperneck 18.8752 -5.28345 6.65895
head 8.6995 -2.50097 3.21038
rclavicle 1.82882e-014 -5.56597e-015
rhumerus -31.2059 -10.5494 -82.3632
rradius 29.351
rwrist 10.1631
rhand -13.6737 10.7123
rfingers 7.12502
rthumb 12.4437 -18.8973
lclavicle 1.82882e-014 -5.56597e-015
lhumerus -33.8602 15.0111 79.2168
lradius 25.7499
lwrist -9.49514
lhand -13.9116 22.7235
lfingers 7.12502
lthumb 12.2143 52.3469
rfemur -8.30854 -0.171322 17.6167
rtibia 57.586
rfoot 19.2881 -3.74555
rtoes 9.51409
lfemur -19.3212 0.53683 -26.5088
ltibia 19.4746
lfoot -8.50038 -4.58694
ltoes -0.7077
146
root 0.868393 17.7362 -22.2044 5.85041 -1.94741 4.22733
lowerback 5.77836 1.65233 -4.3163
upperback 0.2385 1.90689 -0.266193
thorax -3.12697 1.00836 1.98454
lowerneck -14.3599 -4.54035 -9.97765
upperneck 19.2963 -5.40964 6.80285
head 8.86787 -2.57958 3.31964
rclavicle -2.03257e-014 1.07344e-014
rhumerus -31.1152 -10.6223 -82.3663
rradius 29.4246
rwrist 10.1134
rhand -13.938 10.7493
rfingers 7.12502
rthumb 12.1889 -18.8756
lclavicle -2.03257e-014 1.07344e-014
lhumerus -33.7424 14.4529 79.4612
lradius 26.2981
lwrist -9.25098
lhand -14.3645 22.8355
lfingers 7.12502
lthumb 11.7776 52.4844
rfemur -9.73627 -0.569448 17.2691
rtibia 59.7819
rfoot 16.8984 -3.37303
rtoes 7.19041
lfemur -18.6932 0.473475 -26.8502
ltibia 19.5859
lfoot -8.93954 -4.46003
ltoes -0.833821
147
root 0.876856 17.7369 -22.0676 5.72217 -1.8621 4.47233
lowerback 5.88968 1.55968 -4.50846
upperback 0.222842 1.76214 -0.334464
thorax -3.1997 0.940261 2.03138
lowerneck -13.7867 -4.54767 -10.1153
upperneck 19.0145 -5.44582 6.8617
head 8.67653 -2.6102 3.36244
rclavicle 2.40529e-014 -3.97569e-015
rhumerus -31.1649 -10.8096 -82.3396
rradius 29.7605
rwrist 10.0427
rhand -13.814 10.4344
rfingers 7.12502
rthumb 12.3085 -19.1833
lclavicle 2.40529e-014 -3.97569e-015
lhumerus -33.3268 14.3705 79.433
lradius 26.058
lwrist -9.46034
lhand -13.9367 22.9478
lfingers 7.12502
lthumb 12.1901 52.5726
rfemur -11.1495 -0.956427 16.9285
rtibia 61.8054
rfoot 14.1929 -3.21668
rtoes 5.34546
lfemur -18.0449 0.303788 -27.1552
ltibia 19.8057
lfoot -9.34931 -4.24973
ltoes 0.0224445
148
root 0.880262 17.7305 -21.9352 5.71896 -1.7659 4.67766
lowerback 5.9529 1.51597 -4.73397
upperback 0.178024 1.68141 -0.406604
thorax -3.28061 0.905279 2.08812
lowerneck -13.3689 -4.50748 -9.97685
upperneck 18.7685 -5.43628 6.78739
head 8.50983 -2.6098 3.31813
rclavicle 1.43622e-014 7.15625e-015
rhumerus -31.2612 -11.0147 -82.3429
rradius 30.3194
rwrist 9.96719
rhand -13.7283 9.49096
rfingers 7.12502
rthumb 12.3911 -20.1218
lclavicle 1.43622e-014 7.15625e-015
lhumerus -32.7981 14.2311 79.4216
lradius 25.6273
lwrist -9.44182
lhand -12.8411 24.8157
lfingers 7.12502
lthumb 13.2464 54.3748
rfemur -12.7518 -1.30184 16.6806
rtibia 63.6766
rfoot 11.8016 -3.35282
rtoes 5.45614
lfemur -17.6763 0.580458 -27.462
ltibia 20.0837
lfoot -9.69028 -4.57099
ltoes 0.819623
149
root 0.887295 17.7198 -21.799 5.61533 -1.79458 4.80164
lowerback 6.02079 1.50074 -4.86124
upperback 0.321141 1.65254 -0.408022
thorax -3.17187 0.888088 2.16119
lowerneck -13.7848 -4.52042 -9.90816
upperneck 18.9658 -5.40472 6.63781
head 8.64342 -2.59795 3.25568
rclavicle -2.98674e-014 2.3059e-014
rhumerus -30.9305 -11.1318 -82.3463
rradius 30.7576
rwrist 9.83375
rhand -14.5018 9.42202
rfingers 7.12502
rthumb 11.6453 -20.2344
lclavicle -2.98674e-014 2.3059e-014
lhumerus -32.0741 14.0303 79.6266
lradius 25.4536
lwrist -9.42171
lhand -12.3153 25.8486
lfingers 7.12502
lthumb 13.7531 55.374
rfemur -14.2096 -1.48492 16.4911
rtibia 65.3384
rfoot 9.67481 -3.44198
rtoes 5.65606
lfemur -17.2841 0.817745 -27.6731
ltibia 20.4434
lfoot -10.1147 -4.64995
ltoes 2.05756
150
root 0.89461 17.7038 -21.6613 5.53069 -1.73547 5.00849
lowerback 5.9374 1.40873 -4.95683
upperback 0.479869 1.53132 -0.476623
thorax -2.95216 0.821279 2.15898
lowerneck -14.0616 -4.49621 -9.8494
upperneck 18.9852 -5.33886 6.5496
head 8.69035 -2.56652 3.22036
rclavicle 9.83984e-015 -1.31198e-014
rhumerus -30.5727 -11.2687 -82.46
rradius 30.9504
rwrist 9.32454
rhand -16.2827 10.822
rfingers 7.12502
rthumb 9.92739 -18.9239
lclavicle 9.83984e-015 -1.31198e-014
lhumerus -31.3472 13.7191 79.7929
lradius 25.3786
lwrist -9.64729
lhand -12.463 25.5157
lfingers 7.12502
lthumb 13.6108 55.0508
rfemur -15.6615 -1.76325 16.2125
rtibia 66.7948
rfoot 7.86178 -3.37881
rtoes 5.91151
lfemur -16.8284 0.922808 -27.9786
ltibia 20.7976
lfoot -10.4997 -4.53878
ltoes 3.47083
151
root 0.89807 17.6882 -21.5306 5.55251 -1.5441 5.07282
lowerback 5.95829 1.22301 -4.9068
upperback 0.417421 1.28305 -0.519772
thorax -3.00779 0.699237 2.10709
lowerneck -13.8828 -4.36779 -9.88796
upperneck 19.0709 -5.17605 6.56226
head 8.67338 -2.49563 3.2548
rclavicle 1.8487e-014 -7.55382e-015
rhumerus -30.5653 -11.0158 -82.7391
rradius 30.7584
rwrist 7.57273
rhand -17.6563 12.951
rfingers 7.12502
rthumb 8.60207 -16.8537
lclavicle 1.8487e-014 -7.55382e-015
lhumerus -31.0549 13.2519 79.9098
lradius 25.6202
lwrist -9.5096
lhand -12.9058 25.9231
lfingers 7.12502
lthumb 13.184 55.4863
rfemur -17.2462 -2.11057 16.1607
rtibia 68.0299
rfoot 6.31019 -3.7249
rtoes 7.27333
lfemur -16.5705 1.01181 -28.1358
ltibia 21.1562
lfoot -10.8386 -4.51113
ltoes 3.60784
152
root 0.900824 17.6764 -21.3934 5.34997 -1.45706 5.14121
lowerback 6.17895 1.09682 -5.01574
upperback 0.442699 1.09687 -0.462054
thorax -3.09486 0.60993 2.24114
lowerneck -13.7524 -4.26228 -9.93342
upperneck 19.1946 -5.01189 6.44576
head 8.67525 -2.43683 3.2456
rclavicle -2.21148e-014 1.15295e-014
rhumerus -30.5018 -10.8502 -82.7388
rradius 31.0868
rwrist 7.57738
rhand -16.9834 12.2573
rfingers 7.12502
rthumb 9.25137 -17.5198
lclavicle -2.21148e-014 1.15295e-014
lhumerus -30.7843 12.8197 80.1161
lradius 25.9739
lwrist -9.6122
lhand -12.7432 26.6494
lfingers 7.12502
lthumb 13.3408 56.2023
rfemur -18.4688 -2.28841 16.1094
rtibia 69.0148
rfoot 4.69756 -4.28163
rtoes 7.32449
lfemur -16.1432 1.27501 -28.3066
ltibia 21.5257
lfoot -11.2294 -4.55143
ltoes 3.16906
